<svg aria-hidden="true" style="position: absolute; width: 0; height: 0; overflow: hidden;" version="1.1" xmlns="http://www.w3.org/2000/svg" xmlns:xlink="http://www.w3.org/1999/xlink">
<defs>
<symbol id="icon-piano" viewBox="0 0 32 32">
<path d="M0 28v-23h31v23h-31zM6 18h-1v-12h-4v21h5v-9zM12 18h-1v-12h-3v12h-1v9h5v-9zM18 18h-1v-12h-3v12h-1v9h5v-9zM20 6v12h-1v9h5v-9h-1v-12h-3zM30 6h-4v12h-1v9h5v-21z"></path>
</symbol>
<symbol id="icon-pencil" viewBox="0 0 32 32">
<path d="M27 0c2.761 0 5 2.239 5 5 0 1.126-0.372 2.164-1 3l-2 2-7-7 2-2c0.836-0.628 1.874-1 3-1zM2 23l-2 9 9-2 18.5-18.5-7-7-18.5 18.5zM22.362 11.362l-14 14-1.724-1.724 14-14 1.724 1.724z"></path>
</symbol>
<symbol id="icon-headphones" viewBox="0 0 32 32">
<path d="M9 18h-2v14h2c0.55 0 1-0.45 1-1v-12c0-0.55-0.45-1-1-1z"></path>
<path d="M23 18c-0.55 0-1 0.45-1 1v12c0 0.55 0.45 1 1 1h2v-14h-2z"></path>
<path d="M32 16c0-8.837-7.163-16-16-16s-16 7.163-16 16c0 1.919 0.338 3.759 0.958 5.464-0.609 1.038-0.958 2.246-0.958 3.536 0 3.526 2.608 6.443 6 6.929v-13.857c-0.997 0.143-1.927 0.495-2.742 1.012-0.168-0.835-0.258-1.699-0.258-2.584 0-7.18 5.82-13 13-13s13 5.82 13 13c0 0.885-0.088 1.749-0.257 2.584-0.816-0.517-1.745-0.87-2.743-1.013v13.858c3.392-0.485 6-3.402 6-6.929 0-1.29-0.349-2.498-0.958-3.536 0.62-1.705 0.958-3.545 0.958-5.465z"></path>
</symbol>
<symbol id="icon-music1" viewBox="0 0 32 32">
<path d="M30 0h2v23c0 2.761-3.134 5-7 5s-7-2.239-7-5c0-2.761 3.134-5 7-5 1.959 0 3.729 0.575 5 1.501v-11.501l-16 3.556v15.444c0 2.761-3.134 5-7 5s-7-2.239-7-5c0-2.761 3.134-5 7-5 1.959 0 3.729 0.575 5 1.501v-19.501l18-4z"></path>
</symbol>
<symbol id="icon-users" viewBox="0 0 36 32">
<path d="M24 24.082v-1.649c2.203-1.241 4-4.337 4-7.432 0-4.971 0-9-6-9s-6 4.029-6 9c0 3.096 1.797 6.191 4 7.432v1.649c-6.784 0.555-12 3.888-12 7.918h28c0-4.030-5.216-7.364-12-7.918z"></path>
<path d="M10.225 24.854c1.728-1.13 3.877-1.989 6.243-2.513-0.47-0.556-0.897-1.176-1.265-1.844-0.95-1.726-1.453-3.627-1.453-5.497 0-2.689 0-5.228 0.956-7.305 0.928-2.016 2.598-3.265 4.976-3.734-0.529-2.39-1.936-3.961-5.682-3.961-6 0-6 4.029-6 9 0 3.096 1.797 6.191 4 7.432v1.649c-6.784 0.555-12 3.888-12 7.918h8.719c0.454-0.403 0.956-0.787 1.506-1.146z"></path>
</symbol>
<symbol id="icon-play3" viewBox="0 0 32 32">
<path d="M6 4l20 12-20 12z"></path>
</symbol>
</defs>
</svg>
